<svg width="374" height="78" viewBox="0 0 374 78" fill="none" xmlns="http://www.w3.org/2000/svg">
<rect width="374" height="78" rx="10" fill="white"/>
<path d="M29.156 42H23.99C23.846 42 23.774 41.928 23.774 41.784V40.866C23.774 40.722 23.846 40.65 23.99 40.65H25.376V30.426H23.99C23.846 30.426 23.774 30.354 23.774 30.21V29.292C23.774 29.148 23.846 29.076 23.99 29.076H28.85C30.842 29.076 32.426 29.652 33.602 30.804C34.778 31.944 35.366 33.516 35.366 35.52C35.366 37.524 34.808 39.108 33.692 40.272C32.576 41.424 31.064 42 29.156 42ZM26.942 40.65H28.724C32.06 40.626 33.728 38.928 33.728 35.556C33.728 33.936 33.296 32.676 32.432 31.776C31.58 30.876 30.326 30.426 28.67 30.426H26.942V40.65ZM44.6946 40.866C43.8546 41.706 42.7806 42.126 41.4726 42.126C40.1646 42.126 39.0906 41.712 38.2506 40.884C37.4106 40.044 36.9906 38.934 36.9906 37.554C36.9906 36.162 37.4166 35.058 38.2686 34.242C39.1206 33.426 40.1886 33.018 41.4726 33.018C42.7686 33.018 43.8366 33.432 44.6766 34.26C45.5286 35.076 45.9546 36.174 45.9546 37.554C45.9546 38.922 45.5346 40.026 44.6946 40.866ZM38.5026 37.554C38.5026 38.538 38.7906 39.336 39.3666 39.948C39.9426 40.56 40.6446 40.866 41.4726 40.866C42.3126 40.866 43.0206 40.56 43.5966 39.948C44.1726 39.336 44.4606 38.538 44.4606 37.554C44.4606 36.57 44.1666 35.778 43.5786 35.178C43.0026 34.578 42.3066 34.278 41.4906 34.278C40.6746 34.278 39.9726 34.578 39.3846 35.178C38.7966 35.778 38.5026 36.57 38.5026 37.554ZM57.0007 41.802C56.8087 41.802 56.6527 41.652 56.5327 41.352L53.7787 34.35H52.7887C52.6447 34.35 52.5727 34.278 52.5727 34.134V33.36C52.5727 33.216 52.6447 33.144 52.7887 33.144H56.0467C56.2027 33.144 56.2807 33.216 56.2807 33.36V34.134C56.2807 34.278 56.2027 34.35 56.0467 34.35H55.3087L57.6307 40.452H57.6667L59.8267 34.35H59.0167C58.8727 34.35 58.8007 34.278 58.8007 34.134V33.36C58.8007 33.216 58.8727 33.144 59.0167 33.144H62.3647C62.5087 33.144 62.5807 33.216 62.5807 33.36V34.134C62.5807 34.278 62.5087 34.35 62.3647 34.35H61.3567L58.1527 43.152C57.7567 44.22 57.3427 44.994 56.9107 45.474C56.4907 45.966 55.9087 46.212 55.1647 46.212C54.4327 46.212 53.8027 45.978 53.2747 45.51C53.1547 45.39 53.1367 45.282 53.2207 45.186L53.6707 44.61C53.7787 44.526 53.8867 44.52 53.9947 44.592C54.2827 44.82 54.6247 44.934 55.0207 44.934C55.4167 44.934 55.7407 44.796 55.9927 44.52C56.2567 44.256 56.5087 43.794 56.7487 43.134L57.2347 41.802H57.0007ZM70.8333 40.866C69.9933 41.706 68.9193 42.126 67.6113 42.126C66.3033 42.126 65.2293 41.712 64.3893 40.884C63.5493 40.044 63.1293 38.934 63.1293 37.554C63.1293 36.162 63.5553 35.058 64.4073 34.242C65.2593 33.426 66.3273 33.018 67.6113 33.018C68.9073 33.018 69.9753 33.432 70.8153 34.26C71.6673 35.076 72.0933 36.174 72.0933 37.554C72.0933 38.922 71.6733 40.026 70.8333 40.866ZM64.6413 37.554C64.6413 38.538 64.9293 39.336 65.5053 39.948C66.0813 40.56 66.7833 40.866 67.6113 40.866C68.4513 40.866 69.1593 40.56 69.7353 39.948C70.3113 39.336 70.5993 38.538 70.5993 37.554C70.5993 36.57 70.3053 35.778 69.7173 35.178C69.1413 34.578 68.4453 34.278 67.6293 34.278C66.8133 34.278 66.1113 34.578 65.5233 35.178C64.9353 35.778 64.6413 36.57 64.6413 37.554ZM82.5084 42H80.9424C80.4264 42 80.1684 41.748 80.1684 41.244V40.578H80.1144C79.6224 41.61 78.6864 42.126 77.3064 42.126C76.3464 42.126 75.5844 41.844 75.0204 41.28C74.4684 40.704 74.1864 39.942 74.1744 38.994V34.35H73.1484C73.0044 34.35 72.9324 34.278 72.9324 34.134V33.36C72.9324 33.216 73.0044 33.144 73.1484 33.144H74.8764C75.3924 33.144 75.6504 33.396 75.6504 33.9V38.634C75.6504 39.33 75.8184 39.87 76.1544 40.254C76.4904 40.638 76.9824 40.83 77.6304 40.83C78.5064 40.83 79.1964 40.506 79.7004 39.858C79.9164 39.582 80.0244 39.396 80.0244 39.3V34.35H79.0524C78.9084 34.35 78.8364 34.278 78.8364 34.134V33.36C78.8364 33.216 78.9084 33.144 79.0524 33.144H81.2844C81.4284 33.144 81.5004 33.216 81.5004 33.36V40.794H82.5084C82.6644 40.794 82.7424 40.866 82.7424 41.01V41.784C82.7424 41.928 82.6644 42 82.5084 42ZM99.4442 42H98.3822C98.1302 42 97.9862 41.874 97.9502 41.622L96.4202 35.592H96.3842L94.8542 41.622C94.8062 41.874 94.6562 42 94.4042 42H93.3602C93.1442 42 93.0002 41.874 92.9282 41.622L90.5522 34.35H89.5442C89.4002 34.35 89.3282 34.278 89.3282 34.134V33.36C89.3282 33.216 89.4002 33.144 89.5442 33.144H92.9102C93.0542 33.144 93.1262 33.216 93.1262 33.36V34.134C93.1262 34.278 93.0542 34.35 92.9102 34.35H92.0822L93.9002 40.416H93.9362L95.5202 34.35H94.8182C94.6742 34.35 94.6022 34.278 94.6022 34.134V33.36C94.6022 33.216 94.6742 33.144 94.8182 33.144H97.9862C98.1302 33.144 98.2022 33.216 98.2022 33.36V34.134C98.2022 34.278 98.1302 34.35 97.9862 34.35H97.2842L98.8682 40.416H98.9042L100.704 34.35H99.8942C99.7382 34.35 99.6602 34.278 99.6602 34.134V33.36C99.6602 33.216 99.7382 33.144 99.8942 33.144H103.242C103.386 33.144 103.458 33.216 103.458 33.36V34.134C103.458 34.278 103.386 34.35 103.242 34.35H102.252L99.8762 41.622C99.7802 41.874 99.6362 42 99.4442 42ZM113.17 42H111.604C111.088 42 110.83 41.748 110.83 41.244V40.326H110.794C109.918 41.538 108.748 42.144 107.284 42.144C106.42 42.144 105.712 41.922 105.16 41.478C104.608 41.022 104.332 40.41 104.332 39.642C104.332 38.658 104.758 37.938 105.61 37.482C106.474 37.014 107.656 36.78 109.156 36.78H110.668V36.564C110.668 35.064 109.888 34.314 108.328 34.314C107.596 34.314 107.068 34.386 106.744 34.53C106.42 34.662 106.186 34.77 106.042 34.854C105.91 34.938 105.808 35.004 105.736 35.052C105.556 35.196 105.424 35.208 105.34 35.088L104.836 34.458C104.752 34.362 104.764 34.266 104.872 34.17C105.076 33.906 105.496 33.648 106.132 33.396C106.768 33.144 107.518 33.018 108.382 33.018C110.902 33.018 112.162 34.218 112.162 36.618V40.794H113.17C113.314 40.794 113.386 40.866 113.386 41.01V41.784C113.386 41.928 113.314 42 113.17 42ZM110.668 37.86H109.246C108.55 37.86 107.974 37.896 107.518 37.968C107.062 38.04 106.672 38.196 106.348 38.436C106.036 38.676 105.88 39.006 105.88 39.426C105.88 39.846 106.048 40.194 106.384 40.47C106.732 40.734 107.182 40.866 107.734 40.866C108.898 40.866 109.876 40.35 110.668 39.318V37.86ZM124.315 42H122.605C122.089 42 121.831 41.748 121.831 41.244V36.51C121.831 35.814 121.663 35.274 121.327 34.89C120.991 34.506 120.499 34.314 119.851 34.314C118.927 34.314 118.207 34.692 117.691 35.448C117.631 35.52 117.553 35.652 117.457 35.844V40.794H118.411C118.567 40.794 118.645 40.866 118.645 41.01V41.784C118.645 41.928 118.567 42 118.411 42H114.973C114.817 42 114.739 41.928 114.739 41.784V41.01C114.739 40.866 114.817 40.794 114.973 40.794H115.963V34.35H114.973C114.817 34.35 114.739 34.278 114.739 34.134V33.36C114.739 33.216 114.817 33.144 114.973 33.144H117.079C117.235 33.144 117.313 33.216 117.313 33.36L117.277 34.584H117.331C117.955 33.54 118.921 33.018 120.229 33.018C121.189 33.018 121.939 33.3 122.479 33.864C123.019 34.428 123.295 35.19 123.307 36.15V40.794H124.315C124.471 40.794 124.549 40.866 124.549 41.01V41.784C124.549 41.928 124.471 42 124.315 42ZM131.087 41.082C131.135 41.13 131.159 41.184 131.159 41.244C131.159 41.292 131.123 41.352 131.051 41.424C130.523 41.892 129.857 42.126 129.053 42.126C128.261 42.126 127.607 41.868 127.091 41.352C126.587 40.824 126.335 40.062 126.335 39.066V34.35H125.327C125.159 34.35 125.075 34.272 125.075 34.116V33.378C125.075 33.222 125.159 33.144 125.327 33.144H126.335V31.326C126.335 31.158 126.419 31.074 126.587 31.074H127.595C127.751 31.074 127.829 31.158 127.829 31.326V33.144H130.115C130.283 33.144 130.367 33.222 130.367 33.378V34.116C130.367 34.272 130.283 34.35 130.115 34.35H127.829V39.03C127.829 39.63 127.961 40.086 128.225 40.398C128.501 40.698 128.861 40.848 129.305 40.848C129.761 40.848 130.103 40.734 130.331 40.506C130.451 40.398 130.559 40.404 130.655 40.524L131.087 41.082ZM143.954 41.082C144.002 41.13 144.026 41.184 144.026 41.244C144.026 41.292 143.99 41.352 143.918 41.424C143.39 41.892 142.724 42.126 141.92 42.126C141.128 42.126 140.474 41.868 139.958 41.352C139.454 40.824 139.202 40.062 139.202 39.066V34.35H138.194C138.026 34.35 137.942 34.272 137.942 34.116V33.378C137.942 33.222 138.026 33.144 138.194 33.144H139.202V31.326C139.202 31.158 139.286 31.074 139.454 31.074H140.462C140.618 31.074 140.696 31.158 140.696 31.326V33.144H142.982C143.15 33.144 143.234 33.222 143.234 33.378V34.116C143.234 34.272 143.15 34.35 142.982 34.35H140.696V39.03C140.696 39.63 140.828 40.086 141.092 40.398C141.368 40.698 141.728 40.848 142.172 40.848C142.628 40.848 142.97 40.734 143.198 40.506C143.318 40.398 143.426 40.404 143.522 40.524L143.954 41.082ZM152.273 40.866C151.433 41.706 150.359 42.126 149.051 42.126C147.743 42.126 146.669 41.712 145.829 40.884C144.989 40.044 144.569 38.934 144.569 37.554C144.569 36.162 144.995 35.058 145.847 34.242C146.699 33.426 147.767 33.018 149.051 33.018C150.347 33.018 151.415 33.432 152.255 34.26C153.107 35.076 153.533 36.174 153.533 37.554C153.533 38.922 153.113 40.026 152.273 40.866ZM146.081 37.554C146.081 38.538 146.369 39.336 146.945 39.948C147.521 40.56 148.223 40.866 149.051 40.866C149.891 40.866 150.599 40.56 151.175 39.948C151.751 39.336 152.039 38.538 152.039 37.554C152.039 36.57 151.745 35.778 151.157 35.178C150.581 34.578 149.885 34.278 149.069 34.278C148.253 34.278 147.551 34.578 146.963 35.178C146.375 35.778 146.081 36.57 146.081 37.554ZM169.403 42H167.837C167.321 42 167.063 41.748 167.063 41.244V40.326H167.027C166.151 41.538 164.981 42.144 163.517 42.144C162.653 42.144 161.945 41.922 161.393 41.478C160.841 41.022 160.565 40.41 160.565 39.642C160.565 38.658 160.991 37.938 161.843 37.482C162.707 37.014 163.889 36.78 165.389 36.78H166.901V36.564C166.901 35.064 166.121 34.314 164.561 34.314C163.829 34.314 163.301 34.386 162.977 34.53C162.653 34.662 162.419 34.77 162.275 34.854C162.143 34.938 162.041 35.004 161.969 35.052C161.789 35.196 161.657 35.208 161.573 35.088L161.069 34.458C160.985 34.362 160.997 34.266 161.105 34.17C161.309 33.906 161.729 33.648 162.365 33.396C163.001 33.144 163.751 33.018 164.615 33.018C167.135 33.018 168.395 34.218 168.395 36.618V40.794H169.403C169.547 40.794 169.619 40.866 169.619 41.01V41.784C169.619 41.928 169.547 42 169.403 42ZM166.901 37.86H165.479C164.783 37.86 164.207 37.896 163.751 37.968C163.295 38.04 162.905 38.196 162.581 38.436C162.269 38.676 162.113 39.006 162.113 39.426C162.113 39.846 162.281 40.194 162.617 40.47C162.965 40.734 163.415 40.866 163.967 40.866C165.131 40.866 166.109 40.35 166.901 39.318V37.86ZM180.034 42H178.468C178.192 42 177.988 41.946 177.856 41.838C177.736 41.718 177.676 41.52 177.676 41.244V40.236H177.658C177.466 40.74 177.106 41.184 176.578 41.568C176.05 41.94 175.408 42.126 174.652 42.126C173.452 42.126 172.474 41.706 171.718 40.866C170.974 40.026 170.602 38.928 170.602 37.572C170.602 36.204 170.974 35.106 171.718 34.278C172.474 33.438 173.458 33.018 174.67 33.018C175.414 33.018 176.032 33.192 176.524 33.54C177.016 33.876 177.37 34.29 177.586 34.782H177.604C177.592 34.542 177.586 34.344 177.586 34.188V30.282H176.578C176.422 30.282 176.344 30.21 176.344 30.066V29.292C176.344 29.148 176.422 29.076 176.578 29.076H178.81C178.954 29.076 179.026 29.148 179.026 29.292V40.794H180.034C180.178 40.794 180.25 40.866 180.25 41.01V41.784C180.25 41.928 180.178 42 180.034 42ZM172.078 37.536C172.078 38.532 172.336 39.336 172.852 39.948C173.38 40.56 174.046 40.866 174.85 40.866C175.654 40.866 176.314 40.566 176.83 39.966C177.346 39.354 177.604 38.544 177.604 37.536C177.604 36.528 177.34 35.736 176.812 35.16C176.284 34.572 175.63 34.278 174.85 34.278C174.07 34.278 173.41 34.572 172.87 35.16C172.342 35.748 172.078 36.54 172.078 37.536ZM190.757 42H189.191C188.915 42 188.711 41.946 188.579 41.838C188.459 41.718 188.399 41.52 188.399 41.244V40.236H188.381C188.189 40.74 187.829 41.184 187.301 41.568C186.773 41.94 186.131 42.126 185.375 42.126C184.175 42.126 183.197 41.706 182.441 40.866C181.697 40.026 181.325 38.928 181.325 37.572C181.325 36.204 181.697 35.106 182.441 34.278C183.197 33.438 184.181 33.018 185.393 33.018C186.137 33.018 186.755 33.192 187.247 33.54C187.739 33.876 188.093 34.29 188.309 34.782H188.327C188.315 34.542 188.309 34.344 188.309 34.188V30.282H187.301C187.145 30.282 187.067 30.21 187.067 30.066V29.292C187.067 29.148 187.145 29.076 187.301 29.076H189.533C189.677 29.076 189.749 29.148 189.749 29.292V40.794H190.757C190.901 40.794 190.973 40.866 190.973 41.01V41.784C190.973 41.928 190.901 42 190.757 42ZM182.801 37.536C182.801 38.532 183.059 39.336 183.575 39.948C184.103 40.56 184.769 40.866 185.573 40.866C186.377 40.866 187.037 40.566 187.553 39.966C188.069 39.354 188.327 38.544 188.327 37.536C188.327 36.528 188.063 35.736 187.535 35.16C187.007 34.572 186.353 34.278 185.573 34.278C184.793 34.278 184.133 34.572 183.593 35.16C183.065 35.748 182.801 36.54 182.801 37.536ZM201.985 42.126C201.181 42.126 200.539 41.976 200.059 41.676C199.579 41.376 199.279 41.094 199.159 40.83H199.123C199.147 41.418 199.159 41.73 199.159 41.766C199.159 41.922 199.075 42 198.907 42H198.295C198.139 42 198.061 41.922 198.061 41.766V39.066C198.061 38.91 198.139 38.832 198.295 38.832H198.997C199.165 38.832 199.249 38.91 199.249 39.066V39.426C199.369 39.786 199.621 40.116 200.005 40.416C200.461 40.776 201.031 40.956 201.715 40.956C203.059 40.956 203.731 40.488 203.731 39.552C203.731 39.228 203.545 38.97 203.173 38.778C202.801 38.574 202.345 38.406 201.805 38.274C201.277 38.142 200.749 37.992 200.221 37.824C199.693 37.656 199.243 37.386 198.871 37.014C198.499 36.63 198.313 36.15 198.313 35.574C198.313 34.794 198.595 34.176 199.159 33.72C199.723 33.252 200.443 33.018 201.319 33.018C202.507 33.018 203.359 33.366 203.875 34.062H203.911C203.887 33.63 203.875 33.408 203.875 33.396C203.875 33.24 203.953 33.162 204.109 33.162H204.685C204.841 33.162 204.919 33.24 204.919 33.396V35.898C204.919 36.054 204.841 36.132 204.685 36.132H203.983C203.815 36.132 203.731 36.054 203.731 35.898V35.646C203.731 35.322 203.539 35.004 203.155 34.692C202.783 34.368 202.297 34.206 201.697 34.206C201.097 34.206 200.629 34.332 200.293 34.584C199.957 34.836 199.789 35.166 199.789 35.574C199.789 35.97 199.975 36.282 200.347 36.51C200.731 36.726 201.193 36.9 201.733 37.032C202.273 37.152 202.813 37.29 203.353 37.446C203.893 37.602 204.349 37.86 204.721 38.22C205.105 38.58 205.297 39.078 205.297 39.714C205.297 40.35 205.021 40.914 204.469 41.406C203.929 41.886 203.101 42.126 201.985 42.126ZM214.447 40.866C213.607 41.706 212.533 42.126 211.225 42.126C209.917 42.126 208.843 41.712 208.003 40.884C207.163 40.044 206.743 38.934 206.743 37.554C206.743 36.162 207.169 35.058 208.021 34.242C208.873 33.426 209.941 33.018 211.225 33.018C212.521 33.018 213.589 33.432 214.429 34.26C215.281 35.076 215.707 36.174 215.707 37.554C215.707 38.922 215.287 40.026 214.447 40.866ZM208.255 37.554C208.255 38.538 208.543 39.336 209.119 39.948C209.695 40.56 210.397 40.866 211.225 40.866C212.065 40.866 212.773 40.56 213.349 39.948C213.925 39.336 214.213 38.538 214.213 37.554C214.213 36.57 213.919 35.778 213.331 35.178C212.755 34.578 212.059 34.278 211.243 34.278C210.427 34.278 209.725 34.578 209.137 35.178C208.549 35.778 208.255 36.57 208.255 37.554ZM232.199 42H230.489C230.213 42 230.009 41.946 229.877 41.838C229.757 41.718 229.697 41.52 229.697 41.244V36.51C229.697 35.814 229.529 35.274 229.193 34.89C228.869 34.506 228.383 34.314 227.735 34.314C226.787 34.314 226.043 34.728 225.503 35.556C225.575 35.772 225.611 36.012 225.611 36.276V40.794H226.619C226.763 40.794 226.835 40.866 226.835 41.01V41.784C226.835 41.928 226.763 42 226.619 42H223.181C223.025 42 222.947 41.928 222.947 41.784V41.01C222.947 40.866 223.025 40.794 223.181 40.794H224.135V36.51C224.135 35.814 223.967 35.274 223.631 34.89C223.295 34.506 222.803 34.314 222.155 34.314C221.663 34.314 221.285 34.392 221.021 34.548C220.769 34.692 220.577 34.824 220.445 34.944C220.313 35.052 220.205 35.16 220.121 35.268C219.977 35.46 219.857 35.658 219.761 35.862V40.794H220.643C220.787 40.794 220.859 40.866 220.859 41.01V41.784C220.859 41.928 220.787 42 220.643 42H217.277C217.121 42 217.043 41.928 217.043 41.784V41.01C217.043 40.866 217.121 40.794 217.277 40.794H218.267V34.35H217.277C217.121 34.35 217.043 34.278 217.043 34.134V33.36C217.043 33.216 217.121 33.144 217.277 33.144H219.041C219.245 33.144 219.389 33.186 219.473 33.27C219.569 33.342 219.617 33.48 219.617 33.684L219.581 34.584H219.635C220.259 33.54 221.225 33.018 222.533 33.018C223.853 33.018 224.753 33.516 225.233 34.512C225.917 33.516 226.883 33.018 228.131 33.018C229.091 33.018 229.835 33.3 230.363 33.864C230.903 34.428 231.173 35.19 231.173 36.15L231.191 40.794H232.199C232.355 40.794 232.433 40.866 232.433 41.01V41.784C232.433 41.928 232.355 42 232.199 42ZM241.331 37.752H234.851C234.899 38.748 235.211 39.516 235.787 40.056C236.375 40.596 237.035 40.866 237.767 40.866C238.499 40.866 239.123 40.71 239.639 40.398C240.167 40.086 240.521 39.78 240.701 39.48C240.797 39.36 240.905 39.342 241.025 39.426L241.511 39.912C241.583 39.984 241.619 40.05 241.619 40.11C241.619 40.158 241.589 40.224 241.529 40.308C241.481 40.392 241.373 40.524 241.205 40.704C241.037 40.884 240.797 41.088 240.485 41.316C240.185 41.544 239.789 41.736 239.297 41.892C238.817 42.048 238.301 42.126 237.749 42.126C236.489 42.126 235.433 41.712 234.581 40.884C233.741 40.056 233.321 38.946 233.321 37.554C233.321 36.15 233.741 35.046 234.581 34.242C235.421 33.426 236.447 33.018 237.659 33.018C238.883 33.018 239.843 33.414 240.539 34.206C241.235 34.986 241.583 36.042 241.583 37.374C241.583 37.422 241.583 37.47 241.583 37.518C241.583 37.674 241.499 37.752 241.331 37.752ZM240.089 36.654C240.053 35.91 239.819 35.316 239.387 34.872C238.955 34.428 238.379 34.206 237.659 34.206C236.939 34.206 236.321 34.41 235.805 34.818C235.289 35.226 234.983 35.838 234.887 36.654H240.089ZM248.93 41.082C248.978 41.13 249.002 41.184 249.002 41.244C249.002 41.292 248.966 41.352 248.894 41.424C248.366 41.892 247.7 42.126 246.896 42.126C246.104 42.126 245.45 41.868 244.934 41.352C244.43 40.824 244.178 40.062 244.178 39.066V34.35H243.17C243.002 34.35 242.918 34.272 242.918 34.116V33.378C242.918 33.222 243.002 33.144 243.17 33.144H244.178V31.326C244.178 31.158 244.262 31.074 244.43 31.074H245.438C245.594 31.074 245.672 31.158 245.672 31.326V33.144H247.958C248.126 33.144 248.21 33.222 248.21 33.378V34.116C248.21 34.272 248.126 34.35 247.958 34.35H245.672V39.03C245.672 39.63 245.804 40.086 246.068 40.398C246.344 40.698 246.704 40.848 247.148 40.848C247.604 40.848 247.946 40.734 248.174 40.506C248.294 40.398 248.402 40.404 248.498 40.524L248.93 41.082ZM259.561 42H257.851C257.335 42 257.077 41.748 257.077 41.244V36.51C257.077 35.814 256.909 35.274 256.573 34.89C256.237 34.506 255.745 34.314 255.097 34.314C254.605 34.314 254.227 34.392 253.963 34.548C253.711 34.692 253.519 34.824 253.387 34.944C253.255 35.052 253.147 35.16 253.063 35.268C252.919 35.46 252.799 35.658 252.703 35.862V40.794H253.657C253.813 40.794 253.891 40.866 253.891 41.01V41.784C253.891 41.928 253.813 42 253.657 42H250.219C250.063 42 249.985 41.928 249.985 41.784V41.01C249.985 40.866 250.063 40.794 250.219 40.794H251.209V30.282H250.219C250.063 30.282 249.985 30.21 249.985 30.066V29.292C249.985 29.148 250.063 29.076 250.219 29.076H252.487C252.631 29.076 252.703 29.148 252.703 29.292V33.306C252.703 33.702 252.679 34.068 252.631 34.404H252.667C253.255 33.48 254.191 33.018 255.475 33.018C256.435 33.018 257.185 33.3 257.725 33.864C258.265 34.428 258.541 35.19 258.553 36.15V40.794H259.561C259.717 40.794 259.795 40.866 259.795 41.01V41.784C259.795 41.928 259.717 42 259.561 42ZM264.731 42H261.293C261.137 42 261.059 41.928 261.059 41.784V41.01C261.059 40.866 261.137 40.794 261.293 40.794H262.283V34.35H261.293C261.137 34.35 261.059 34.278 261.059 34.134V33.36C261.059 33.216 261.137 33.144 261.293 33.144H263.561C263.705 33.144 263.777 33.216 263.777 33.36V40.794H264.731C264.887 40.794 264.965 40.866 264.965 41.01V41.784C264.965 41.928 264.887 42 264.731 42ZM263.705 30.48C263.909 30.684 264.011 30.924 264.011 31.2C264.011 31.476 263.909 31.71 263.705 31.902C263.513 32.094 263.279 32.19 263.003 32.19C262.727 32.19 262.487 32.094 262.283 31.902C262.091 31.71 261.995 31.476 261.995 31.2C261.995 30.924 262.091 30.684 262.283 30.48C262.487 30.276 262.727 30.174 263.003 30.174C263.279 30.174 263.513 30.276 263.705 30.48ZM275.908 42H274.198C273.682 42 273.424 41.748 273.424 41.244V36.51C273.424 35.814 273.256 35.274 272.92 34.89C272.584 34.506 272.092 34.314 271.444 34.314C270.52 34.314 269.8 34.692 269.284 35.448C269.224 35.52 269.146 35.652 269.05 35.844V40.794H270.004C270.16 40.794 270.238 40.866 270.238 41.01V41.784C270.238 41.928 270.16 42 270.004 42H266.566C266.41 42 266.332 41.928 266.332 41.784V41.01C266.332 40.866 266.41 40.794 266.566 40.794H267.556V34.35H266.566C266.41 34.35 266.332 34.278 266.332 34.134V33.36C266.332 33.216 266.41 33.144 266.566 33.144H268.672C268.828 33.144 268.906 33.216 268.906 33.36L268.87 34.584H268.924C269.548 33.54 270.514 33.018 271.822 33.018C272.782 33.018 273.532 33.3 274.072 33.864C274.612 34.428 274.888 35.19 274.9 36.15V40.794H275.908C276.064 40.794 276.142 40.866 276.142 41.01V41.784C276.142 41.928 276.064 42 275.908 42ZM281.318 46.212C280.718 46.212 280.262 46.17 279.95 46.086C279.65 46.002 279.404 45.924 279.212 45.852C279.032 45.792 278.876 45.726 278.744 45.654C278.612 45.594 278.486 45.528 278.366 45.456C277.838 45.108 277.64 44.856 277.772 44.7L278.24 44.034C278.312 43.926 278.414 43.92 278.546 44.016C278.558 44.016 278.594 44.04 278.654 44.088C278.726 44.148 278.792 44.202 278.852 44.25C278.924 44.298 279.014 44.352 279.122 44.412C279.242 44.484 279.374 44.544 279.518 44.592C279.662 44.652 279.818 44.706 279.986 44.754C280.382 44.862 280.82 44.916 281.3 44.916C282.164 44.916 282.854 44.706 283.37 44.286C283.898 43.878 284.162 43.23 284.162 42.342V40.29C283.946 40.794 283.586 41.226 283.082 41.586C282.59 41.946 281.972 42.126 281.228 42.126C280.004 42.126 279.02 41.7 278.276 40.848C277.544 39.996 277.178 38.892 277.178 37.536C277.178 36.18 277.55 35.088 278.294 34.26C279.05 33.432 280.028 33.018 281.228 33.018C281.972 33.018 282.596 33.192 283.1 33.54C283.616 33.876 283.988 34.29 284.216 34.782H284.252L284.234 33.36C284.234 33.216 284.306 33.144 284.45 33.144H286.574C286.718 33.144 286.79 33.216 286.79 33.36V34.134C286.79 34.278 286.718 34.35 286.574 34.35H285.602V42.342C285.602 43.626 285.206 44.592 284.414 45.24C283.634 45.888 282.602 46.212 281.318 46.212ZM278.654 37.572C278.654 38.556 278.918 39.354 279.446 39.966C279.974 40.566 280.634 40.866 281.426 40.866C282.218 40.866 282.872 40.566 283.388 39.966C283.916 39.366 284.18 38.562 284.18 37.554C284.18 36.546 283.916 35.748 283.388 35.16C282.872 34.572 282.218 34.278 281.426 34.278C280.634 34.278 279.974 34.578 279.446 35.178C278.918 35.778 278.654 36.576 278.654 37.572ZM301.835 37.752H295.355C295.403 38.748 295.715 39.516 296.291 40.056C296.879 40.596 297.539 40.866 298.271 40.866C299.003 40.866 299.627 40.71 300.143 40.398C300.671 40.086 301.025 39.78 301.205 39.48C301.301 39.36 301.409 39.342 301.529 39.426L302.015 39.912C302.087 39.984 302.123 40.05 302.123 40.11C302.123 40.158 302.093 40.224 302.033 40.308C301.985 40.392 301.877 40.524 301.709 40.704C301.541 40.884 301.301 41.088 300.989 41.316C300.689 41.544 300.293 41.736 299.801 41.892C299.321 42.048 298.805 42.126 298.253 42.126C296.993 42.126 295.937 41.712 295.085 40.884C294.245 40.056 293.825 38.946 293.825 37.554C293.825 36.15 294.245 35.046 295.085 34.242C295.925 33.426 296.951 33.018 298.163 33.018C299.387 33.018 300.347 33.414 301.043 34.206C301.739 34.986 302.087 36.042 302.087 37.374C302.087 37.422 302.087 37.47 302.087 37.518C302.087 37.674 302.003 37.752 301.835 37.752ZM300.593 36.654C300.557 35.91 300.323 35.316 299.891 34.872C299.459 34.428 298.883 34.206 298.163 34.206C297.443 34.206 296.825 34.41 296.309 34.818C295.793 35.226 295.487 35.838 295.391 36.654H300.593ZM307.077 42H303.639C303.483 42 303.405 41.928 303.405 41.784V41.01C303.405 40.866 303.483 40.794 303.639 40.794H304.629V30.282H303.639C303.483 30.282 303.405 30.21 303.405 30.066V29.292C303.405 29.148 303.483 29.076 303.639 29.076H305.637C305.961 29.076 306.123 29.226 306.123 29.526V40.794H307.077C307.233 40.794 307.311 40.866 307.311 41.01V41.784C307.311 41.928 307.233 42 307.077 42ZM312.674 42.126C311.87 42.126 311.228 41.976 310.748 41.676C310.268 41.376 309.968 41.094 309.848 40.83H309.812C309.836 41.418 309.848 41.73 309.848 41.766C309.848 41.922 309.764 42 309.596 42H308.984C308.828 42 308.75 41.922 308.75 41.766V39.066C308.75 38.91 308.828 38.832 308.984 38.832H309.686C309.854 38.832 309.938 38.91 309.938 39.066V39.426C310.058 39.786 310.31 40.116 310.694 40.416C311.15 40.776 311.72 40.956 312.404 40.956C313.748 40.956 314.42 40.488 314.42 39.552C314.42 39.228 314.234 38.97 313.862 38.778C313.49 38.574 313.034 38.406 312.494 38.274C311.966 38.142 311.438 37.992 310.91 37.824C310.382 37.656 309.932 37.386 309.56 37.014C309.188 36.63 309.002 36.15 309.002 35.574C309.002 34.794 309.284 34.176 309.848 33.72C310.412 33.252 311.132 33.018 312.008 33.018C313.196 33.018 314.048 33.366 314.564 34.062H314.6C314.576 33.63 314.564 33.408 314.564 33.396C314.564 33.24 314.642 33.162 314.798 33.162H315.374C315.53 33.162 315.608 33.24 315.608 33.396V35.898C315.608 36.054 315.53 36.132 315.374 36.132H314.672C314.504 36.132 314.42 36.054 314.42 35.898V35.646C314.42 35.322 314.228 35.004 313.844 34.692C313.472 34.368 312.986 34.206 312.386 34.206C311.786 34.206 311.318 34.332 310.982 34.584C310.646 34.836 310.478 35.166 310.478 35.574C310.478 35.97 310.664 36.282 311.036 36.51C311.42 36.726 311.882 36.9 312.422 37.032C312.962 37.152 313.502 37.29 314.042 37.446C314.582 37.602 315.038 37.86 315.41 38.22C315.794 38.58 315.986 39.078 315.986 39.714C315.986 40.35 315.71 40.914 315.158 41.406C314.618 41.886 313.79 42.126 312.674 42.126ZM325.442 37.752H318.962C319.01 38.748 319.322 39.516 319.898 40.056C320.486 40.596 321.146 40.866 321.878 40.866C322.61 40.866 323.234 40.71 323.75 40.398C324.278 40.086 324.632 39.78 324.812 39.48C324.908 39.36 325.016 39.342 325.136 39.426L325.622 39.912C325.694 39.984 325.73 40.05 325.73 40.11C325.73 40.158 325.7 40.224 325.64 40.308C325.592 40.392 325.484 40.524 325.316 40.704C325.148 40.884 324.908 41.088 324.596 41.316C324.296 41.544 323.9 41.736 323.408 41.892C322.928 42.048 322.412 42.126 321.86 42.126C320.6 42.126 319.544 41.712 318.692 40.884C317.852 40.056 317.432 38.946 317.432 37.554C317.432 36.15 317.852 35.046 318.692 34.242C319.532 33.426 320.558 33.018 321.77 33.018C322.994 33.018 323.954 33.414 324.65 34.206C325.346 34.986 325.694 36.042 325.694 37.374C325.694 37.422 325.694 37.47 325.694 37.518C325.694 37.674 325.61 37.752 325.442 37.752ZM324.2 36.654C324.164 35.91 323.93 35.316 323.498 34.872C323.066 34.428 322.49 34.206 321.77 34.206C321.05 34.206 320.432 34.41 319.916 34.818C319.4 35.226 319.094 35.838 318.998 36.654H324.2ZM331.554 39.714H330.312C330.156 39.714 330.078 39.642 330.078 39.498C330.078 38.742 330.222 38.07 330.51 37.482C330.798 36.894 331.146 36.42 331.554 36.06C331.962 35.7 332.37 35.364 332.778 35.052C333.762 34.32 334.254 33.582 334.254 32.838C334.254 32.082 333.99 31.488 333.462 31.056C332.934 30.624 332.196 30.408 331.248 30.408C330.312 30.408 329.598 30.648 329.106 31.128C328.626 31.608 328.38 32.238 328.368 33.018C328.368 33.162 328.296 33.234 328.152 33.234H327.018C326.862 33.234 326.784 33.162 326.784 33.018C326.784 31.89 327.15 30.936 327.882 30.156C328.626 29.364 329.742 28.968 331.23 28.968C332.718 28.968 333.864 29.316 334.668 30.012C335.484 30.708 335.892 31.584 335.892 32.64C335.892 33.216 335.79 33.738 335.586 34.206C335.382 34.662 335.13 35.028 334.83 35.304C334.53 35.58 334.2 35.874 333.84 36.186C333.48 36.486 333.15 36.768 332.85 37.032C332.55 37.296 332.298 37.644 332.094 38.076C331.89 38.496 331.788 38.97 331.788 39.498C331.788 39.642 331.71 39.714 331.554 39.714ZM331.626 41.262C331.806 41.442 331.896 41.664 331.896 41.928C331.896 42.192 331.806 42.414 331.626 42.594C331.446 42.786 331.218 42.882 330.942 42.882C330.678 42.882 330.45 42.786 330.258 42.594C330.078 42.414 329.988 42.192 329.988 41.928C329.988 41.664 330.078 41.442 330.258 41.262C330.45 41.07 330.678 40.974 330.942 40.974C331.218 40.974 331.446 41.07 331.626 41.262Z" fill="black"/>
</svg>
