<svg width="343" height="52" viewBox="0 0 343 52" fill="none" xmlns="http://www.w3.org/2000/svg">
<rect x="1" y="1" width="341" height="50" rx="5" fill="black" stroke="black" stroke-width="2"/>
<path d="M116.535 33H112.467C112.323 33 112.251 32.928 112.251 32.784V31.866C112.251 31.722 112.323 31.65 112.467 31.65H113.727L112.557 28.536H107.535L106.365 31.65H107.625C107.769 31.65 107.841 31.722 107.841 31.866V32.784C107.841 32.928 107.769 33 107.625 33H103.575C103.431 33 103.359 32.928 103.359 32.784V31.866C103.359 31.722 103.431 31.65 103.575 31.65H104.781L108.651 21.426H107.679C107.523 21.426 107.445 21.354 107.445 21.21V20.292C107.445 20.148 107.523 20.076 107.679 20.076H110.127C110.415 20.076 110.631 20.136 110.775 20.256C110.931 20.376 111.063 20.574 111.171 20.85L115.311 31.65H116.535C116.679 31.65 116.751 31.722 116.751 31.866V32.784C116.751 32.928 116.679 33 116.535 33ZM112.071 27.294L110.073 21.948H110.019L108.003 27.294H112.071ZM123.386 33H118.22C118.076 33 118.004 32.928 118.004 32.784V31.866C118.004 31.722 118.076 31.65 118.22 31.65H119.606V21.426H118.22C118.076 21.426 118.004 21.354 118.004 21.21V20.292C118.004 20.148 118.076 20.076 118.22 20.076H123.08C125.072 20.076 126.656 20.652 127.832 21.804C129.008 22.944 129.596 24.516 129.596 26.52C129.596 28.524 129.038 30.108 127.922 31.272C126.806 32.424 125.294 33 123.386 33ZM121.172 31.65H122.954C126.29 31.626 127.958 29.928 127.958 26.556C127.958 24.936 127.526 23.676 126.662 22.776C125.81 21.876 124.556 21.426 122.9 21.426H121.172V31.65ZM136.762 33H131.596C131.452 33 131.38 32.928 131.38 32.784V31.866C131.38 31.722 131.452 31.65 131.596 31.65H132.982V21.426H131.596C131.452 21.426 131.38 21.354 131.38 21.21V20.292C131.38 20.148 131.452 20.076 131.596 20.076H136.456C138.448 20.076 140.032 20.652 141.208 21.804C142.384 22.944 142.972 24.516 142.972 26.52C142.972 28.524 142.414 30.108 141.298 31.272C140.182 32.424 138.67 33 136.762 33ZM134.548 31.65H136.33C139.666 31.626 141.334 29.928 141.334 26.556C141.334 24.936 140.902 23.676 140.038 22.776C139.186 21.876 137.932 21.426 136.276 21.426H134.548V31.65ZM159.617 33H155.423C155.267 33 155.189 32.922 155.189 32.766V31.884C155.189 31.728 155.267 31.65 155.423 31.65H156.791V21.426H153.389V23.334C153.389 23.502 153.305 23.586 153.137 23.586H152.129C151.961 23.586 151.877 23.502 151.877 23.334V20.31C151.877 20.154 151.961 20.076 152.129 20.076H162.983C163.151 20.076 163.235 20.154 163.235 20.31V23.334C163.235 23.502 163.151 23.586 162.983 23.586H161.957C161.801 23.586 161.723 23.502 161.723 23.334V21.426H158.357V31.65H159.617C159.785 31.65 159.869 31.728 159.869 31.884V32.766C159.869 32.922 159.785 33 159.617 33ZM177.658 26.484C177.658 28.452 177.064 30.054 175.876 31.29C174.7 32.514 173.212 33.126 171.412 33.126C169.624 33.126 168.13 32.508 166.93 31.272C165.73 30.024 165.13 28.422 165.13 26.466C165.13 24.498 165.748 22.926 166.984 21.75C168.22 20.562 169.696 19.968 171.412 19.968C173.128 19.968 174.598 20.562 175.822 21.75C177.046 22.926 177.658 24.504 177.658 26.484ZM168.19 30.3C169.114 31.212 170.188 31.668 171.412 31.668C172.636 31.668 173.704 31.212 174.616 30.3C175.528 29.376 175.984 28.116 175.984 26.52C175.984 24.912 175.516 23.658 174.58 22.758C173.656 21.846 172.6 21.39 171.412 21.39C170.224 21.39 169.162 21.846 168.226 22.758C167.29 23.658 166.822 24.912 166.822 26.52C166.822 28.116 167.278 29.376 168.19 30.3ZM198.168 29.742C198.228 29.79 198.258 29.85 198.258 29.922C198.258 29.982 198.228 30.072 198.168 30.192C198.12 30.3 198.03 30.45 197.898 30.642C197.778 30.822 197.556 31.074 197.232 31.398C196.908 31.722 196.554 32.004 196.17 32.244C195.786 32.472 195.276 32.676 194.64 32.856C194.016 33.036 193.344 33.126 192.624 33.126C190.872 33.126 189.408 32.514 188.232 31.29C187.068 30.066 186.486 28.464 186.486 26.484C186.486 24.492 187.074 22.908 188.25 21.732C189.438 20.556 190.866 19.968 192.534 19.968C194.394 19.968 195.744 20.61 196.584 21.894L196.566 20.292C196.542 20.148 196.614 20.076 196.782 20.076H197.79C197.946 20.076 198.024 20.148 198.024 20.292V24.216C198.024 24.372 197.946 24.45 197.79 24.45H196.656C196.512 24.45 196.44 24.372 196.44 24.216V24.054C196.44 23.502 196.062 22.932 195.306 22.344C194.562 21.744 193.632 21.444 192.516 21.444C191.4 21.444 190.392 21.888 189.492 22.776C188.604 23.652 188.16 24.9 188.16 26.52C188.16 28.128 188.61 29.382 189.51 30.282C190.41 31.17 191.466 31.614 192.678 31.614C193.986 31.614 195.018 31.32 195.774 30.732C196.362 30.276 196.794 29.814 197.07 29.346C197.166 29.166 197.28 29.13 197.412 29.238L198.168 29.742ZM212.594 33H208.526C208.382 33 208.31 32.928 208.31 32.784V31.866C208.31 31.722 208.382 31.65 208.526 31.65H209.786L208.616 28.536H203.594L202.424 31.65H203.684C203.828 31.65 203.9 31.722 203.9 31.866V32.784C203.9 32.928 203.828 33 203.684 33H199.634C199.49 33 199.418 32.928 199.418 32.784V31.866C199.418 31.722 199.49 31.65 199.634 31.65H200.84L204.71 21.426H203.738C203.582 21.426 203.504 21.354 203.504 21.21V20.292C203.504 20.148 203.582 20.076 203.738 20.076H206.186C206.474 20.076 206.69 20.136 206.834 20.256C206.99 20.376 207.122 20.574 207.23 20.85L211.37 31.65H212.594C212.738 31.65 212.81 31.722 212.81 31.866V32.784C212.81 32.928 212.738 33 212.594 33ZM208.13 27.294L206.132 21.948H206.078L204.062 27.294H208.13ZM225.079 33H223.513C223.081 33 222.721 32.712 222.433 32.136L220.741 28.698C220.597 28.398 220.441 28.176 220.273 28.032C220.117 27.888 219.895 27.81 219.607 27.798H217.321V31.65H218.941C219.085 31.65 219.157 31.722 219.157 31.866V32.784C219.157 32.928 219.085 33 218.941 33H214.387C214.231 33 214.153 32.928 214.153 32.784V31.866C214.153 31.722 214.231 31.65 214.387 31.65H215.755V21.426H214.387C214.231 21.426 214.153 21.354 214.153 21.21V20.292C214.153 20.148 214.231 20.076 214.387 20.076H219.931C221.215 20.076 222.259 20.418 223.063 21.102C223.867 21.774 224.269 22.728 224.269 23.964C224.269 25.848 223.387 27.024 221.623 27.492C221.851 27.672 222.133 28.074 222.469 28.698L223.981 31.65H225.079C225.223 31.65 225.295 31.722 225.295 31.866V32.784C225.295 32.928 225.223 33 225.079 33ZM217.321 26.52H219.625C221.665 26.52 222.685 25.686 222.685 24.018C222.685 22.29 221.665 21.426 219.625 21.426H217.321V26.52ZM234.39 33H230.196C230.04 33 229.962 32.922 229.962 32.766V31.884C229.962 31.728 230.04 31.65 230.196 31.65H231.564V21.426H228.162V23.334C228.162 23.502 228.078 23.586 227.91 23.586H226.902C226.734 23.586 226.65 23.502 226.65 23.334V20.31C226.65 20.154 226.734 20.076 226.902 20.076H237.756C237.924 20.076 238.008 20.154 238.008 20.31V23.334C238.008 23.502 237.924 23.586 237.756 23.586H236.73C236.574 23.586 236.496 23.502 236.496 23.334V21.426H233.13V31.65H234.39C234.558 31.65 234.642 31.728 234.642 31.884V32.766C234.642 32.922 234.558 33 234.39 33Z" fill="white"/>
<path fill-rule="evenodd" clip-rule="evenodd" d="M316 24C316 24.55 315.55 25 315 25C314.45 25 314 24.55 314 24V22H312C311.45 22 311 21.55 311 21C311 20.45 311.45 20 312 20H314V18C314 17.45 314.45 17 315 17C315.55 17 316 17.45 316 18V20H318C318.55 20 319 20.45 319 21C319 21.55 318.55 22 318 22H316V24ZM308.01 36C308.01 34.9 308.9 34 310 34C311.1 34 312 34.9 312 36C312 37.1 311.1 38 310 38C308.9 38 308.01 37.1 308.01 36ZM320 34C318.9 34 318.01 34.9 318.01 36C318.01 37.1 318.9 38 320 38C321.1 38 322 37.1 322 36C322 34.9 321.1 34 320 34ZM318.55 29H311.1L310 31H321C321.55 31 322 31.45 322 32C322 32.55 321.55 33 321 33H310C308.48 33 307.52 31.37 308.25 30.03L309.6 27.59L306 20H305C304.45 20 304 19.55 304 19C304 18.45 304.45 18 305 18H306.64C307.02 18 307.38 18.22 307.54 18.57L311.53 27H318.55L321.94 20.87C322.2 20.39 322.81 20.22 323.29 20.48C323.77 20.75 323.95 21.36 323.68 21.84L320.3 27.97C319.96 28.59 319.3 29 318.55 29Z" fill="white"/>
</svg>
