<svg width="343" height="38" viewBox="0 0 343 38" fill="none" xmlns="http://www.w3.org/2000/svg">
<rect x="1" y="1" width="341" height="36" rx="5" fill="black" stroke="black" stroke-width="2"/>
<path d="M140.882 25.9615H136.724C136.58 25.9615 136.508 25.8895 136.508 25.7455V24.8275C136.508 24.6835 136.58 24.6115 136.724 24.6115H137.93V15.6475H137.912L134.492 24.1435C134.348 24.5035 134.084 24.6835 133.7 24.6835C133.316 24.6835 133.052 24.5035 132.908 24.1435L129.488 15.6475H129.452V24.6115H130.658C130.814 24.6115 130.892 24.6835 130.892 24.8275V25.7455C130.892 25.8895 130.814 25.9615 130.658 25.9615H126.518C126.362 25.9615 126.284 25.8895 126.284 25.7455V24.8275C126.284 24.6835 126.362 24.6115 126.518 24.6115H127.886V14.3875H126.518C126.362 14.3875 126.284 14.3155 126.284 14.1715V13.2535C126.284 13.1095 126.362 13.0375 126.518 13.0375H129.29C129.698 13.0375 129.98 13.2415 130.136 13.6495L132.818 20.1295L133.664 22.3975H133.736C134.072 21.4615 134.348 20.7175 134.564 20.1655L137.264 13.6495C137.42 13.2415 137.708 13.0375 138.128 13.0375H140.882C141.026 13.0375 141.098 13.1095 141.098 13.2535V14.1715C141.098 14.3155 141.026 14.3875 140.882 14.3875H139.496V24.6115H140.882C141.026 24.6115 141.098 24.6835 141.098 24.8275V25.7455C141.098 25.8895 141.026 25.9615 140.882 25.9615ZM151.172 25.9615H146.834C146.69 25.9615 146.618 25.8895 146.618 25.7455V24.8275C146.618 24.6835 146.69 24.6115 146.834 24.6115H148.22V20.7595L147.5 19.5175C145.94 16.7455 144.938 15.0355 144.494 14.3875H143.27C143.114 14.3875 143.036 14.3155 143.036 14.1715V13.2535C143.036 13.1095 143.114 13.0375 143.27 13.0375H147.32C147.464 13.0375 147.536 13.1095 147.536 13.2535V14.1715C147.536 14.3155 147.464 14.3875 147.32 14.3875H146.132L148.958 19.3915H149.066L151.874 14.3875H150.686C150.542 14.3875 150.47 14.3155 150.47 14.1715V13.2535C150.47 13.1095 150.542 13.0375 150.686 13.0375H154.754C154.898 13.0375 154.97 13.1095 154.97 13.2535V14.1715C154.97 14.3155 154.898 14.3875 154.754 14.3875H153.512C152.924 15.2515 152.156 16.5235 151.208 18.2035C150.272 19.8835 149.798 20.7295 149.786 20.7415V24.6115H151.172C151.316 24.6115 151.388 24.6835 151.388 24.8275V25.7455C151.388 25.8895 151.316 25.9615 151.172 25.9615ZM175.458 22.7035C175.518 22.7515 175.548 22.8115 175.548 22.8835C175.548 22.9435 175.518 23.0335 175.458 23.1535C175.41 23.2615 175.32 23.4115 175.188 23.6035C175.068 23.7835 174.846 24.0355 174.522 24.3595C174.198 24.6835 173.844 24.9655 173.46 25.2055C173.076 25.4335 172.566 25.6375 171.93 25.8175C171.306 25.9975 170.634 26.0875 169.914 26.0875C168.162 26.0875 166.698 25.4755 165.522 24.2515C164.358 23.0275 163.776 21.4255 163.776 19.4455C163.776 17.4535 164.364 15.8695 165.54 14.6935C166.728 13.5175 168.156 12.9295 169.824 12.9295C171.684 12.9295 173.034 13.5715 173.874 14.8555L173.856 13.2535C173.832 13.1095 173.904 13.0375 174.072 13.0375H175.08C175.236 13.0375 175.314 13.1095 175.314 13.2535V17.1775C175.314 17.3335 175.236 17.4115 175.08 17.4115H173.946C173.802 17.4115 173.73 17.3335 173.73 17.1775V17.0155C173.73 16.4635 173.352 15.8935 172.596 15.3055C171.852 14.7055 170.922 14.4055 169.806 14.4055C168.69 14.4055 167.682 14.8495 166.782 15.7375C165.894 16.6135 165.45 17.8615 165.45 19.4815C165.45 21.0895 165.9 22.3435 166.8 23.2435C167.7 24.1315 168.756 24.5755 169.968 24.5755C171.276 24.5755 172.308 24.2815 173.064 23.6935C173.652 23.2375 174.084 22.7755 174.36 22.3075C174.456 22.1275 174.57 22.0915 174.702 22.1995L175.458 22.7035ZM189.884 25.9615H185.816C185.672 25.9615 185.6 25.8895 185.6 25.7455V24.8275C185.6 24.6835 185.672 24.6115 185.816 24.6115H187.076L185.906 21.4975H180.884L179.714 24.6115H180.974C181.118 24.6115 181.19 24.6835 181.19 24.8275V25.7455C181.19 25.8895 181.118 25.9615 180.974 25.9615H176.924C176.78 25.9615 176.708 25.8895 176.708 25.7455V24.8275C176.708 24.6835 176.78 24.6115 176.924 24.6115H178.13L182 14.3875H181.028C180.872 14.3875 180.794 14.3155 180.794 14.1715V13.2535C180.794 13.1095 180.872 13.0375 181.028 13.0375H183.476C183.764 13.0375 183.98 13.0975 184.124 13.2175C184.28 13.3375 184.412 13.5355 184.52 13.8115L188.66 24.6115H189.884C190.028 24.6115 190.1 24.6835 190.1 24.8275V25.7455C190.1 25.8895 190.028 25.9615 189.884 25.9615ZM185.42 20.2555L183.422 14.9095H183.368L181.352 20.2555H185.42ZM202.369 25.9615H200.803C200.371 25.9615 200.011 25.6735 199.723 25.0975L198.031 21.6595C197.887 21.3595 197.731 21.1375 197.563 20.9935C197.407 20.8495 197.185 20.7715 196.897 20.7595H194.611V24.6115H196.231C196.375 24.6115 196.447 24.6835 196.447 24.8275V25.7455C196.447 25.8895 196.375 25.9615 196.231 25.9615H191.677C191.521 25.9615 191.443 25.8895 191.443 25.7455V24.8275C191.443 24.6835 191.521 24.6115 191.677 24.6115H193.045V14.3875H191.677C191.521 14.3875 191.443 14.3155 191.443 14.1715V13.2535C191.443 13.1095 191.521 13.0375 191.677 13.0375H197.221C198.505 13.0375 199.549 13.3795 200.353 14.0635C201.157 14.7355 201.559 15.6895 201.559 16.9255C201.559 18.8095 200.677 19.9855 198.913 20.4535C199.141 20.6335 199.423 21.0355 199.759 21.6595L201.271 24.6115H202.369C202.513 24.6115 202.585 24.6835 202.585 24.8275V25.7455C202.585 25.8895 202.513 25.9615 202.369 25.9615ZM194.611 19.4815H196.915C198.955 19.4815 199.975 18.6475 199.975 16.9795C199.975 15.2515 198.955 14.3875 196.915 14.3875H194.611V19.4815ZM211.68 25.9615H207.486C207.33 25.9615 207.252 25.8835 207.252 25.7275V24.8455C207.252 24.6895 207.33 24.6115 207.486 24.6115H208.854V14.3875H205.452V16.2955C205.452 16.4635 205.368 16.5475 205.2 16.5475H204.192C204.024 16.5475 203.94 16.4635 203.94 16.2955V13.2715C203.94 13.1155 204.024 13.0375 204.192 13.0375H215.046C215.214 13.0375 215.298 13.1155 215.298 13.2715V16.2955C215.298 16.4635 215.214 16.5475 215.046 16.5475H214.02C213.864 16.5475 213.786 16.4635 213.786 16.2955V14.3875H210.42V24.6115H211.68C211.848 24.6115 211.932 24.6895 211.932 24.8455V25.7275C211.932 25.8835 211.848 25.9615 211.68 25.9615Z" fill="white"/>
<path d="M300.682 27.548H299.71C299.566 27.548 299.494 27.476 299.494 27.332V25.982C298.69 25.874 298.024 25.634 297.496 25.262C296.98 24.878 296.59 24.464 296.326 24.02H296.29L296.326 25.226C296.338 25.37 296.266 25.442 296.11 25.442H295.102C294.946 25.442 294.868 25.37 294.868 25.226V21.842C294.868 21.698 294.946 21.626 295.102 21.626H296.236C296.38 21.626 296.452 21.698 296.452 21.842V21.95C296.488 22.286 296.77 22.778 297.298 23.426C297.574 23.762 297.976 24.056 298.504 24.308C299.044 24.548 299.71 24.668 300.502 24.668C301.294 24.668 301.948 24.476 302.464 24.092C302.992 23.708 303.256 23.174 303.256 22.49C303.256 22.07 303.106 21.71 302.806 21.41C302.518 21.11 302.14 20.876 301.672 20.708C301.204 20.54 300.682 20.39 300.106 20.258C299.542 20.114 298.972 19.952 298.396 19.772C297.832 19.592 297.316 19.382 296.848 19.142C296.38 18.89 295.996 18.536 295.696 18.08C295.408 17.624 295.264 17.084 295.264 16.46C295.264 15.488 295.624 14.678 296.344 14.03C297.064 13.37 298.042 13.016 299.278 12.968V11.726C299.278 11.582 299.35 11.51 299.494 11.51H300.466C300.61 11.51 300.682 11.582 300.682 11.726V13.148C301.714 13.292 302.5 13.706 303.04 14.39L303.004 13.688C303.004 13.544 303.082 13.472 303.238 13.472H304.246C304.39 13.472 304.462 13.544 304.462 13.688V16.946C304.462 17.09 304.39 17.162 304.246 17.162H303.112C302.968 17.162 302.896 17.09 302.896 16.946V16.712C302.872 16.256 302.632 15.788 302.176 15.308C301.936 15.056 301.594 14.852 301.15 14.696C300.718 14.528 300.16 14.444 299.476 14.444C298.792 14.444 298.204 14.636 297.712 15.02C297.232 15.392 296.992 15.842 296.992 16.37C296.992 16.886 297.142 17.306 297.442 17.63C297.742 17.942 298.132 18.188 298.612 18.368C299.092 18.536 299.62 18.698 300.196 18.854C300.772 18.998 301.348 19.16 301.924 19.34C302.5 19.508 303.028 19.712 303.508 19.952C303.988 20.18 304.378 20.51 304.678 20.942C304.978 21.374 305.128 21.89 305.128 22.49C305.128 23.51 304.774 24.356 304.066 25.028C303.37 25.7 302.314 26.06 300.898 26.108V27.332C300.898 27.476 300.826 27.548 300.682 27.548ZM316.243 24.308C315.331 25.52 314.059 26.126 312.427 26.126C310.795 26.126 309.517 25.52 308.593 24.308C307.681 23.096 307.225 21.506 307.225 19.538C307.225 17.57 307.693 15.986 308.629 14.786C309.565 13.574 310.831 12.968 312.427 12.968C314.023 12.968 315.289 13.574 316.225 14.786C317.161 15.986 317.629 17.57 317.629 19.538C317.629 21.494 317.167 23.084 316.243 24.308ZM309.835 23.318C310.459 24.218 311.323 24.668 312.427 24.668C313.531 24.668 314.395 24.224 315.019 23.336C315.643 22.436 315.955 21.176 315.955 19.556C315.955 17.936 315.637 16.67 315.001 15.758C314.377 14.846 313.519 14.39 312.427 14.39C311.335 14.39 310.471 14.846 309.835 15.758C309.211 16.67 308.899 17.936 308.899 19.556C308.899 21.164 309.211 22.418 309.835 23.318ZM328.74 24.308C327.828 25.52 326.556 26.126 324.924 26.126C323.292 26.126 322.014 25.52 321.09 24.308C320.178 23.096 319.722 21.506 319.722 19.538C319.722 17.57 320.19 15.986 321.126 14.786C322.062 13.574 323.328 12.968 324.924 12.968C326.52 12.968 327.786 13.574 328.722 14.786C329.658 15.986 330.126 17.57 330.126 19.538C330.126 21.494 329.664 23.084 328.74 24.308ZM322.332 23.318C322.956 24.218 323.82 24.668 324.924 24.668C326.028 24.668 326.892 24.224 327.516 23.336C328.14 22.436 328.452 21.176 328.452 19.556C328.452 17.936 328.134 16.67 327.498 15.758C326.874 14.846 326.016 14.39 324.924 14.39C323.832 14.39 322.968 14.846 322.332 15.758C321.708 16.67 321.396 17.936 321.396 19.556C321.396 21.164 321.708 22.418 322.332 23.318Z" fill="white"/>
<path fill-rule="evenodd" clip-rule="evenodd" d="M12 9C12 9.55 12.45 10 13 10H14L17.6 17.59L16.25 20.03C15.52 21.37 16.48 23 18 23H29C29.55 23 30 22.55 30 22C30 21.45 29.55 21 29 21H18L19.1 19H26.55C27.3 19 27.96 18.59 28.3 17.97L31.88 11.48C32.25 10.82 31.77 10 31.01 10H16.21L15.54 8.57C15.38 8.22 15.02 8 14.64 8H13C12.45 8 12 8.45 12 9ZM18 24C16.9 24 16.01 24.9 16.01 26C16.01 27.1 16.9 28 18 28C19.1 28 20 27.1 20 26C20 24.9 19.1 24 18 24ZM26.01 26C26.01 24.9 26.9 24 28 24C29.1 24 30 24.9 30 26C30 27.1 29.1 28 28 28C26.9 28 26.01 27.1 26.01 26Z" fill="white"/>
</svg>
