<svg width="343" height="52" viewBox="0 0 343 52" fill="none" xmlns="http://www.w3.org/2000/svg">
<rect x="1" y="1" width="341" height="50" rx="5" fill="black" stroke="black" stroke-width="2"/>
<path d="M129.917 29.742C129.977 29.79 130.007 29.85 130.007 29.922C130.007 29.982 129.977 30.072 129.917 30.192C129.869 30.3 129.779 30.45 129.647 30.642C129.527 30.822 129.305 31.074 128.981 31.398C128.657 31.722 128.303 32.004 127.919 32.244C127.535 32.472 127.025 32.676 126.389 32.856C125.765 33.036 125.093 33.126 124.373 33.126C122.621 33.126 121.157 32.514 119.981 31.29C118.817 30.066 118.235 28.464 118.235 26.484C118.235 24.492 118.823 22.908 119.999 21.732C121.187 20.556 122.615 19.968 124.283 19.968C126.143 19.968 127.493 20.61 128.333 21.894L128.315 20.292C128.291 20.148 128.363 20.076 128.531 20.076H129.539C129.695 20.076 129.773 20.148 129.773 20.292V24.216C129.773 24.372 129.695 24.45 129.539 24.45H128.405C128.261 24.45 128.189 24.372 128.189 24.216V24.054C128.189 23.502 127.811 22.932 127.055 22.344C126.311 21.744 125.381 21.444 124.265 21.444C123.149 21.444 122.141 21.888 121.241 22.776C120.353 23.652 119.909 24.9 119.909 26.52C119.909 28.128 120.359 29.382 121.259 30.282C122.159 31.17 123.215 31.614 124.427 31.614C125.735 31.614 126.767 31.32 127.523 30.732C128.111 30.276 128.543 29.814 128.819 29.346C128.915 29.166 129.029 29.13 129.161 29.238L129.917 29.742ZM144.684 26.484C144.684 28.452 144.09 30.054 142.902 31.29C141.726 32.514 140.238 33.126 138.438 33.126C136.65 33.126 135.156 32.508 133.956 31.272C132.756 30.024 132.156 28.422 132.156 26.466C132.156 24.498 132.774 22.926 134.01 21.75C135.246 20.562 136.722 19.968 138.438 19.968C140.154 19.968 141.624 20.562 142.848 21.75C144.072 22.926 144.684 24.504 144.684 26.484ZM135.216 30.3C136.14 31.212 137.214 31.668 138.438 31.668C139.662 31.668 140.73 31.212 141.642 30.3C142.554 29.376 143.01 28.116 143.01 26.52C143.01 24.912 142.542 23.658 141.606 22.758C140.682 21.846 139.626 21.39 138.438 21.39C137.25 21.39 136.188 21.846 135.252 22.758C134.316 23.658 133.848 24.912 133.848 26.52C133.848 28.116 134.304 29.376 135.216 30.3ZM157.502 33H156.53C156.302 33 156.122 32.958 155.99 32.874C155.858 32.778 155.732 32.634 155.612 32.442L150.41 24.306L149.51 22.794H149.474V31.65H150.86C151.016 31.65 151.094 31.722 151.094 31.866V32.784C151.094 32.928 151.016 33 150.86 33H146.54C146.384 33 146.306 32.928 146.306 32.784V31.866C146.306 31.722 146.384 31.65 146.54 31.65H147.908V21.426H146.54C146.384 21.426 146.306 21.354 146.306 21.21V20.292C146.306 20.148 146.384 20.076 146.54 20.076H149.06C149.408 20.076 149.714 20.28 149.978 20.688L155.108 28.716L156.134 30.462H156.17V21.426H154.784C154.64 21.426 154.568 21.354 154.568 21.21V20.292C154.568 20.148 154.64 20.076 154.784 20.076H159.122C159.266 20.076 159.338 20.148 159.338 20.292V21.21C159.338 21.354 159.266 21.426 159.122 21.426H157.736V32.784C157.736 32.928 157.658 33 157.502 33ZM169.215 33H165.021C164.865 33 164.787 32.922 164.787 32.766V31.884C164.787 31.728 164.865 31.65 165.021 31.65H166.389V21.426H162.987V23.334C162.987 23.502 162.903 23.586 162.735 23.586H161.727C161.559 23.586 161.475 23.502 161.475 23.334V20.31C161.475 20.154 161.559 20.076 161.727 20.076H172.581C172.749 20.076 172.833 20.154 172.833 20.31V23.334C172.833 23.502 172.749 23.586 172.581 23.586H171.555C171.399 23.586 171.321 23.502 171.321 23.334V21.426H167.955V31.65H169.215C169.383 31.65 169.467 31.728 169.467 31.884V32.766C169.467 32.922 169.383 33 169.215 33ZM179.704 33H175.384C175.228 33 175.15 32.928 175.15 32.784V31.866C175.15 31.722 175.228 31.65 175.384 31.65H176.752V21.426H175.384C175.228 21.426 175.15 21.354 175.15 21.21V20.292C175.15 20.148 175.228 20.076 175.384 20.076H179.704C179.86 20.076 179.938 20.148 179.938 20.292V21.21C179.938 21.354 179.86 21.426 179.704 21.426H178.318V31.65H179.704C179.86 31.65 179.938 31.722 179.938 31.866V32.784C179.938 32.928 179.86 33 179.704 33ZM193.5 33H192.528C192.3 33 192.12 32.958 191.988 32.874C191.856 32.778 191.73 32.634 191.61 32.442L186.408 24.306L185.508 22.794H185.472V31.65H186.858C187.014 31.65 187.092 31.722 187.092 31.866V32.784C187.092 32.928 187.014 33 186.858 33H182.538C182.382 33 182.304 32.928 182.304 32.784V31.866C182.304 31.722 182.382 31.65 182.538 31.65H183.906V21.426H182.538C182.382 21.426 182.304 21.354 182.304 21.21V20.292C182.304 20.148 182.382 20.076 182.538 20.076H185.058C185.406 20.076 185.712 20.28 185.976 20.688L191.106 28.716L192.132 30.462H192.168V21.426H190.782C190.638 21.426 190.566 21.354 190.566 21.21V20.292C190.566 20.148 190.638 20.076 190.782 20.076H195.12C195.264 20.076 195.336 20.148 195.336 20.292V21.21C195.336 21.354 195.264 21.426 195.12 21.426H193.734V32.784C193.734 32.928 193.656 33 193.5 33ZM207.194 28.32V21.426H205.808C205.664 21.426 205.592 21.354 205.592 21.21V20.292C205.592 20.148 205.664 20.076 205.808 20.076H210.146C210.29 20.076 210.362 20.148 210.362 20.292V21.21C210.362 21.354 210.29 21.426 210.146 21.426H208.76V28.158C208.76 29.778 208.334 31.014 207.482 31.866C206.642 32.706 205.448 33.126 203.9 33.126C202.364 33.126 201.17 32.706 200.318 31.866C199.466 31.014 199.04 29.778 199.04 28.158V21.426H197.672C197.516 21.426 197.438 21.354 197.438 21.21V20.292C197.438 20.148 197.516 20.076 197.672 20.076H201.992C202.148 20.076 202.226 20.148 202.226 20.292V21.21C202.226 21.354 202.148 21.426 201.992 21.426H200.606V28.212C200.606 30.516 201.71 31.668 203.918 31.668C205.046 31.668 205.874 31.374 206.402 30.786C206.93 30.186 207.194 29.364 207.194 28.32ZM222.1 33H212.542C212.386 33 212.308 32.928 212.308 32.784V31.866C212.308 31.722 212.386 31.65 212.542 31.65H213.91V21.426H212.542C212.386 21.426 212.308 21.354 212.308 21.21V20.292C212.308 20.148 212.386 20.076 212.542 20.076H222.1C222.256 20.076 222.334 20.148 222.334 20.292V23.19C222.334 23.346 222.256 23.424 222.1 23.424H221.128C220.984 23.424 220.912 23.346 220.912 23.19V21.426H215.476V25.89H220.03C220.186 25.89 220.264 25.962 220.264 26.106V27.024C220.264 27.168 220.186 27.24 220.03 27.24H215.476V31.65H220.894V29.886C220.894 29.742 220.972 29.67 221.128 29.67H222.1C222.256 29.67 222.334 29.742 222.334 29.886V32.784C222.334 32.928 222.256 33 222.1 33Z" fill="white"/>
</svg>
