<svg width="343" height="52" viewBox="0 0 343 52" fill="none" xmlns="http://www.w3.org/2000/svg">
<rect x="1" y="1" width="341" height="50" rx="5" fill="black" stroke="black" stroke-width="2"/>
<path d="M158.356 33H148.798C148.642 33 148.564 32.928 148.564 32.784V31.866C148.564 31.722 148.642 31.65 148.798 31.65H150.166V21.426H148.798C148.642 21.426 148.564 21.354 148.564 21.21V20.292C148.564 20.148 148.642 20.076 148.798 20.076H158.356C158.512 20.076 158.59 20.148 158.59 20.292V23.19C158.59 23.346 158.512 23.424 158.356 23.424H157.384C157.24 23.424 157.168 23.346 157.168 23.19V21.426H151.732V25.89H156.286C156.442 25.89 156.52 25.962 156.52 26.106V27.024C156.52 27.168 156.442 27.24 156.286 27.24H151.732V31.65H157.15V29.886C157.15 29.742 157.228 29.67 157.384 29.67H158.356C158.512 29.67 158.59 29.742 158.59 29.886V32.784C158.59 32.928 158.512 33 158.356 33ZM166.335 33H161.169C161.025 33 160.953 32.928 160.953 32.784V31.866C160.953 31.722 161.025 31.65 161.169 31.65H162.555V21.426H161.169C161.025 21.426 160.953 21.354 160.953 21.21V20.292C160.953 20.148 161.025 20.076 161.169 20.076H166.029C168.021 20.076 169.605 20.652 170.781 21.804C171.957 22.944 172.545 24.516 172.545 26.52C172.545 28.524 171.987 30.108 170.871 31.272C169.755 32.424 168.243 33 166.335 33ZM164.121 31.65H165.903C169.239 31.626 170.907 29.928 170.907 26.556C170.907 24.936 170.475 23.676 169.611 22.776C168.759 21.876 167.505 21.426 165.849 21.426H164.121V31.65ZM178.974 33H174.654C174.498 33 174.42 32.928 174.42 32.784V31.866C174.42 31.722 174.498 31.65 174.654 31.65H176.022V21.426H174.654C174.498 21.426 174.42 21.354 174.42 21.21V20.292C174.42 20.148 174.498 20.076 174.654 20.076H178.974C179.13 20.076 179.208 20.148 179.208 20.292V21.21C179.208 21.354 179.13 21.426 178.974 21.426H177.588V31.65H178.974C179.13 31.65 179.208 31.722 179.208 31.866V32.784C179.208 32.928 179.13 33 178.974 33ZM189.401 33H185.207C185.051 33 184.973 32.922 184.973 32.766V31.884C184.973 31.728 185.051 31.65 185.207 31.65H186.575V21.426H183.173V23.334C183.173 23.502 183.089 23.586 182.921 23.586H181.913C181.745 23.586 181.661 23.502 181.661 23.334V20.31C181.661 20.154 181.745 20.076 181.913 20.076H192.767C192.935 20.076 193.019 20.154 193.019 20.31V23.334C193.019 23.502 192.935 23.586 192.767 23.586H191.741C191.585 23.586 191.507 23.502 191.507 23.334V21.426H188.141V31.65H189.401C189.569 31.65 189.653 31.728 189.653 31.884V32.766C189.653 32.922 189.569 33 189.401 33Z" fill="white"/>
</svg>
