<svg width="36" height="40" viewBox="0 0 36 40" fill="none" xmlns="http://www.w3.org/2000/svg">
<g id="dehaze_24px">
<path id="icon/image/dehaze_24px" fill-rule="evenodd" clip-rule="evenodd" d="M4.5 13.3333C3.675 13.3333 3 12.5833 3 11.6667C3 10.75 3.675 10 4.5 10H31.5C32.325 10 33 10.75 33 11.6667C33 12.5833 32.325 13.3333 31.5 13.3333H4.5ZM3 20C3 20.9167 3.675 21.6667 4.5 21.6667H31.5C32.325 21.6667 33 20.9167 33 20C33 19.0833 32.325 18.3333 31.5 18.3333H4.5C3.675 18.3333 3 19.0833 3 20ZM3 28.3333C3 29.25 3.675 30 4.5 30H31.5C32.325 30 33 29.25 33 28.3333C33 27.4167 32.325 26.6667 31.5 26.6667H4.5C3.675 26.6667 3 27.4167 3 28.3333Z" fill="#F2F2F2"/>
</g>
</svg>
