<svg width="374" height="78" viewBox="0 0 374 78" fill="none" xmlns="http://www.w3.org/2000/svg">
<rect width="374" height="78" rx="10" fill="white"/>
<path d="M40.856 39.312C40.856 41.936 40.064 44.072 38.48 45.72C36.912 47.352 34.928 48.168 32.528 48.168C30.144 48.168 28.152 47.344 26.552 45.696C24.952 44.032 24.152 41.896 24.152 39.288C24.152 36.664 24.976 34.568 26.624 33C28.272 31.416 30.24 30.624 32.528 30.624C34.816 30.624 36.776 31.416 38.408 33C40.04 34.568 40.856 36.672 40.856 39.312ZM28.232 44.4C29.464 45.616 30.896 46.224 32.528 46.224C34.16 46.224 35.584 45.616 36.8 44.4C38.016 43.168 38.624 41.488 38.624 39.36C38.624 37.216 38 35.544 36.752 34.344C35.52 33.128 34.112 32.52 32.528 32.52C30.944 32.52 29.528 33.128 28.28 34.344C27.032 35.544 26.408 37.216 26.408 39.36C26.408 41.488 27.016 43.168 28.232 44.4ZM48.0793 53.4H43.2553C43.0473 53.4 42.9433 53.304 42.9433 53.112V52.08C42.9433 51.888 43.0473 51.792 43.2553 51.792H44.5993V37.8H43.3033C43.0953 37.8 42.9913 37.704 42.9913 37.512V36.48C42.9913 36.288 43.0953 36.192 43.3033 36.192H46.1113C46.3193 36.192 46.4233 36.288 46.4233 36.48L46.3993 38.376H46.4233C46.7273 37.72 47.2153 37.168 47.8873 36.72C48.5753 36.256 49.4153 36.024 50.4073 36.024C52.0233 36.024 53.3273 36.576 54.3193 37.68C55.3113 38.768 55.8073 40.224 55.8073 42.048C55.8073 43.856 55.3193 45.328 54.3433 46.464C53.3673 47.6 52.0633 48.168 50.4313 48.168C49.4393 48.168 48.6073 47.944 47.9353 47.496C47.2793 47.032 46.8073 46.472 46.5193 45.816H46.4473C46.4953 46.328 46.5193 46.696 46.5193 46.92V51.792H48.0793C48.2873 51.792 48.3913 51.888 48.3913 52.08V53.112C48.3913 53.304 48.2873 53.4 48.0793 53.4ZM46.4713 42.144C46.4713 43.536 46.8313 44.608 47.5513 45.36C48.2873 46.112 49.1673 46.488 50.1913 46.488C51.2313 46.488 52.0953 46.088 52.7833 45.288C53.4873 44.472 53.8393 43.408 53.8393 42.096C53.8393 40.768 53.4873 39.704 52.7833 38.904C52.0953 38.104 51.2313 37.704 50.1913 37.704C49.1513 37.704 48.2713 38.096 47.5513 38.88C46.8313 39.664 46.4713 40.752 46.4713 42.144ZM65.2561 46.776C65.3201 46.84 65.3521 46.912 65.3521 46.992C65.3521 47.056 65.3041 47.136 65.2081 47.232C64.5041 47.856 63.6161 48.168 62.5441 48.168C61.4881 48.168 60.6161 47.824 59.9281 47.136C59.2561 46.432 58.9201 45.416 58.9201 44.088V37.8H57.5761C57.3521 37.8 57.2401 37.696 57.2401 37.488V36.504C57.2401 36.296 57.3521 36.192 57.5761 36.192H58.9201V33.768C58.9201 33.544 59.0321 33.432 59.2561 33.432H60.6001C60.8081 33.432 60.9121 33.544 60.9121 33.768V36.192H63.9601C64.1841 36.192 64.2961 36.296 64.2961 36.504V37.488C64.2961 37.696 64.1841 37.8 63.9601 37.8H60.9121V44.04C60.9121 44.84 61.0881 45.448 61.4401 45.864C61.8081 46.264 62.2881 46.464 62.8801 46.464C63.4881 46.464 63.9441 46.312 64.2481 46.008C64.4081 45.864 64.5521 45.872 64.6801 46.032L65.2561 46.776ZM71.5814 48H66.9974C66.7894 48 66.6854 47.904 66.6854 47.712V46.68C66.6854 46.488 66.7894 46.392 66.9974 46.392H68.3174V37.8H66.9974C66.7894 37.8 66.6854 37.704 66.6854 37.512V36.48C66.6854 36.288 66.7894 36.192 66.9974 36.192H70.0214C70.2134 36.192 70.3094 36.288 70.3094 36.48V46.392H71.5814C71.7894 46.392 71.8934 46.488 71.8934 46.68V47.712C71.8934 47.904 71.7894 48 71.5814 48ZM70.2134 32.64C70.4854 32.912 70.6214 33.232 70.6214 33.6C70.6214 33.968 70.4854 34.28 70.2134 34.536C69.9574 34.792 69.6454 34.92 69.2774 34.92C68.9094 34.92 68.5894 34.792 68.3174 34.536C68.0614 34.28 67.9334 33.968 67.9334 33.6C67.9334 33.232 68.0614 32.912 68.3174 32.64C68.5894 32.368 68.9094 32.232 69.2774 32.232C69.6454 32.232 69.9574 32.368 70.2134 32.64ZM83.7074 46.488C82.5874 47.608 81.1554 48.168 79.4114 48.168C77.6674 48.168 76.2354 47.616 75.1154 46.512C73.9954 45.392 73.4354 43.912 73.4354 42.072C73.4354 40.216 74.0034 38.744 75.1394 37.656C76.2754 36.568 77.6994 36.024 79.4114 36.024C81.1394 36.024 82.5634 36.576 83.6834 37.68C84.8194 38.768 85.3874 40.232 85.3874 42.072C85.3874 43.896 84.8274 45.368 83.7074 46.488ZM75.4514 42.072C75.4514 43.384 75.8354 44.448 76.6034 45.264C77.3714 46.08 78.3074 46.488 79.4114 46.488C80.5314 46.488 81.4754 46.08 82.2434 45.264C83.0114 44.448 83.3954 43.384 83.3954 42.072C83.3954 40.76 83.0034 39.704 82.2194 38.904C81.4514 38.104 80.5234 37.704 79.4354 37.704C78.3474 37.704 77.4114 38.104 76.6274 38.904C75.8434 39.704 75.4514 40.76 75.4514 42.072ZM99.9378 48H97.6578C96.9698 48 96.6258 47.664 96.6258 46.992V40.68C96.6258 39.752 96.4018 39.032 95.9538 38.52C95.5058 38.008 94.8498 37.752 93.9858 37.752C92.7538 37.752 91.7938 38.256 91.1058 39.264C91.0258 39.36 90.9218 39.536 90.7938 39.792V46.392H92.0658C92.2738 46.392 92.3778 46.488 92.3778 46.68V47.712C92.3778 47.904 92.2738 48 92.0658 48H87.4818C87.2738 48 87.1698 47.904 87.1698 47.712V46.68C87.1698 46.488 87.2738 46.392 87.4818 46.392H88.8018V37.8H87.4818C87.2738 37.8 87.1698 37.704 87.1698 37.512V36.48C87.1698 36.288 87.2738 36.192 87.4818 36.192H90.2898C90.4978 36.192 90.6018 36.288 90.6018 36.48L90.5538 38.112H90.6258C91.4578 36.72 92.7458 36.024 94.4898 36.024C95.7698 36.024 96.7698 36.4 97.4898 37.152C98.2098 37.904 98.5778 38.92 98.5938 40.2V46.392H99.9378C100.146 46.392 100.25 46.488 100.25 46.68V47.712C100.25 47.904 100.146 48 99.9378 48Z" fill="black"/>
</svg>
