<svg width="374" height="78" viewBox="0 0 374 78" fill="none" xmlns="http://www.w3.org/2000/svg">
<rect width="374" height="78" rx="10" fill="white"/>
<path d="M33.992 48H24.512C24.304 48 24.2 47.904 24.2 47.712V46.488C24.2 46.296 24.304 46.2 24.512 46.2H28.4V33.024L25.088 35.4C24.928 35.512 24.792 35.488 24.68 35.328L24.008 34.344C23.96 34.28 23.936 34.216 23.936 34.152C23.936 34.088 23.984 34.016 24.08 33.936L28.256 30.936C28.416 30.824 28.56 30.768 28.688 30.768H30.2C30.392 30.768 30.488 30.864 30.488 31.056V46.2H33.992C34.184 46.2 34.28 46.296 34.28 46.488V47.712C34.28 47.904 34.184 48 33.992 48ZM47.7395 48H43.2275C43.0355 48 42.9395 47.904 42.9395 47.712V46.68C42.9395 46.488 43.0355 46.392 43.2275 46.392H44.4275L41.5955 42.912L38.9555 46.392H40.0595C40.2515 46.392 40.3475 46.488 40.3475 46.68V47.712C40.3475 47.904 40.2515 48 40.0595 48H36.0035C35.8115 48 35.7155 47.904 35.7155 47.712V46.68C35.7155 46.488 35.8115 46.392 36.0035 46.392H37.1555L40.6595 41.976L37.1555 37.8H36.0035C35.8115 37.8 35.7155 37.704 35.7155 37.512V36.48C35.7155 36.288 35.8115 36.192 36.0035 36.192H40.5155C40.7075 36.192 40.8035 36.288 40.8035 36.48V37.512C40.8035 37.704 40.7075 37.8 40.5155 37.8H39.3875L42.2195 41.232L44.6435 37.8H43.6835C43.4915 37.8 43.3955 37.704 43.3955 37.512V36.48C43.3955 36.288 43.4915 36.192 43.6835 36.192H47.7395C47.9315 36.192 48.0275 36.288 48.0275 36.48V37.512C48.0275 37.704 47.9315 37.8 47.7395 37.8H46.4435L43.1795 42.24L46.6835 46.392H47.7395C47.9315 46.392 48.0275 46.488 48.0275 46.68V47.712C48.0275 47.904 47.9315 48 47.7395 48ZM63.7983 48H57.5343C57.3263 48 57.2223 47.904 57.2223 47.712V46.488C57.2223 46.296 57.3263 46.2 57.5343 46.2H59.3583V32.568H57.5343C57.3263 32.568 57.2223 32.472 57.2223 32.28V31.056C57.2223 30.864 57.3263 30.768 57.5343 30.768H64.9263C66.6223 30.768 68.0063 31.264 69.0783 32.256C70.1663 33.232 70.7103 34.56 70.7103 36.24C70.7103 37.904 70.1823 39.2 69.1263 40.128C68.0703 41.04 66.5823 41.496 64.6623 41.496H61.4463V46.2H63.7983C63.9903 46.2 64.0863 46.296 64.0863 46.488V47.712C64.0863 47.904 63.9903 48 63.7983 48ZM61.4463 39.792H64.5663C67.2543 39.792 68.5983 38.608 68.5983 36.24C68.5983 35.008 68.2143 34.088 67.4463 33.48C66.6943 32.872 65.7423 32.568 64.5903 32.568H61.4463V39.792ZM77.2533 48H72.6693C72.4613 48 72.3573 47.904 72.3573 47.712V46.68C72.3573 46.488 72.4613 46.392 72.6693 46.392H73.9893V37.8H72.6693C72.4613 37.8 72.3573 37.704 72.3573 37.512V36.48C72.3573 36.288 72.4613 36.192 72.6693 36.192H75.4773C75.6853 36.192 75.7893 36.288 75.7893 36.48V39.48H75.8613C75.9093 39.224 76.0773 38.872 76.3653 38.424C76.6533 37.976 76.9653 37.608 77.3013 37.32C77.6533 37.016 78.1493 36.744 78.7893 36.504C79.4453 36.264 80.1813 36.144 80.9973 36.144C81.2053 36.144 81.3093 36.248 81.3093 36.456V37.728C81.3093 37.936 81.2053 38.04 80.9973 38.04H80.4933C79.1173 38.04 78.0213 38.48 77.2053 39.36C76.3893 40.24 75.9813 41.24 75.9813 42.36V46.392H77.2533C77.4613 46.392 77.5653 46.488 77.5653 46.68V47.712C77.5653 47.904 77.4613 48 77.2533 48ZM92.3559 46.488C91.2359 47.608 89.8039 48.168 88.0599 48.168C86.3159 48.168 84.8839 47.616 83.7639 46.512C82.6439 45.392 82.0839 43.912 82.0839 42.072C82.0839 40.216 82.6519 38.744 83.7879 37.656C84.9239 36.568 86.3479 36.024 88.0599 36.024C89.7879 36.024 91.2119 36.576 92.3319 37.68C93.4679 38.768 94.0359 40.232 94.0359 42.072C94.0359 43.896 93.4759 45.368 92.3559 46.488ZM84.0999 42.072C84.0999 43.384 84.4839 44.448 85.2519 45.264C86.0199 46.08 86.9559 46.488 88.0599 46.488C89.1799 46.488 90.1239 46.08 90.8919 45.264C91.6599 44.448 92.0439 43.384 92.0439 42.072C92.0439 40.76 91.6519 39.704 90.8679 38.904C90.0999 38.104 89.1719 37.704 88.0839 37.704C86.9959 37.704 86.0599 38.104 85.2759 38.904C84.4919 39.704 84.0999 40.76 84.0999 42.072ZM108.347 48H106.259C105.891 48 105.619 47.928 105.443 47.784C105.283 47.624 105.203 47.36 105.203 46.992V45.648H105.179C104.923 46.32 104.443 46.912 103.739 47.424C103.035 47.92 102.179 48.168 101.171 48.168C99.5714 48.168 98.2674 47.608 97.2594 46.488C96.2674 45.368 95.7714 43.904 95.7714 42.096C95.7714 40.272 96.2674 38.808 97.2594 37.704C98.2674 36.584 99.5794 36.024 101.195 36.024C102.187 36.024 103.011 36.256 103.667 36.72C104.323 37.168 104.795 37.72 105.083 38.376H105.107C105.091 38.056 105.083 37.792 105.083 37.584V32.376H103.739C103.531 32.376 103.427 32.28 103.427 32.088V31.056C103.427 30.864 103.531 30.768 103.739 30.768H106.715C106.907 30.768 107.003 30.864 107.003 31.056V46.392H108.347C108.539 46.392 108.635 46.488 108.635 46.68V47.712C108.635 47.904 108.539 48 108.347 48ZM97.7394 42.048C97.7394 43.376 98.0834 44.448 98.7714 45.264C99.4754 46.08 100.363 46.488 101.435 46.488C102.507 46.488 103.387 46.088 104.075 45.288C104.763 44.472 105.107 43.392 105.107 42.048C105.107 40.704 104.755 39.648 104.051 38.88C103.347 38.096 102.475 37.704 101.435 37.704C100.395 37.704 99.5154 38.096 98.7954 38.88C98.0914 39.664 97.7394 40.72 97.7394 42.048ZM122.899 48H120.811C120.123 48 119.779 47.664 119.779 46.992V46.104H119.707C119.051 47.48 117.803 48.168 115.963 48.168C114.683 48.168 113.667 47.792 112.915 47.04C112.179 46.272 111.803 45.256 111.787 43.992V37.8H110.419C110.227 37.8 110.131 37.704 110.131 37.512V36.48C110.131 36.288 110.227 36.192 110.419 36.192H112.723C113.411 36.192 113.755 36.528 113.755 37.2V43.512C113.755 44.44 113.979 45.16 114.427 45.672C114.875 46.184 115.531 46.44 116.395 46.44C117.563 46.44 118.483 46.008 119.155 45.144C119.443 44.776 119.587 44.528 119.587 44.4V37.8H118.291C118.099 37.8 118.003 37.704 118.003 37.512V36.48C118.003 36.288 118.099 36.192 118.291 36.192H121.267C121.459 36.192 121.555 36.288 121.555 36.48V46.392H122.899C123.107 46.392 123.211 46.488 123.211 46.68V47.712C123.211 47.904 123.107 48 122.899 48ZM135.59 45.216C135.686 45.296 135.734 45.376 135.734 45.456C135.734 45.52 135.694 45.616 135.614 45.744C135.55 45.856 135.398 46.032 135.158 46.272C134.934 46.512 134.614 46.784 134.198 47.088C133.798 47.392 133.27 47.648 132.614 47.856C131.974 48.064 131.286 48.168 130.55 48.168C128.87 48.168 127.462 47.616 126.326 46.512C125.206 45.408 124.646 43.928 124.646 42.072C124.646 40.2 125.206 38.728 126.326 37.656C127.462 36.568 128.846 36.024 130.478 36.024C132.11 36.024 133.342 36.616 134.174 37.8H134.198L134.174 36.48C134.174 36.272 134.278 36.168 134.486 36.168H135.398C135.59 36.168 135.686 36.272 135.686 36.48V40.56C135.686 40.752 135.59 40.848 135.398 40.848H134.294C134.102 40.848 134.006 40.752 134.006 40.56V40.152C133.99 39.576 133.662 39.024 133.022 38.496C132.382 37.968 131.566 37.704 130.574 37.704C129.598 37.704 128.702 38.096 127.886 38.88C127.07 39.664 126.662 40.736 126.662 42.096C126.662 43.44 127.062 44.512 127.862 45.312C128.662 46.096 129.558 46.488 130.55 46.488C131.542 46.488 132.382 46.28 133.07 45.864C133.774 45.432 134.246 45.016 134.486 44.616C134.598 44.424 134.734 44.4 134.894 44.544L135.59 45.216ZM145.6 46.776C145.664 46.84 145.696 46.912 145.696 46.992C145.696 47.056 145.648 47.136 145.552 47.232C144.848 47.856 143.96 48.168 142.888 48.168C141.832 48.168 140.96 47.824 140.272 47.136C139.6 46.432 139.264 45.416 139.264 44.088V37.8H137.92C137.696 37.8 137.584 37.696 137.584 37.488V36.504C137.584 36.296 137.696 36.192 137.92 36.192H139.264V33.768C139.264 33.544 139.376 33.432 139.6 33.432H140.944C141.152 33.432 141.256 33.544 141.256 33.768V36.192H144.304C144.528 36.192 144.64 36.296 144.64 36.504V37.488C144.64 37.696 144.528 37.8 144.304 37.8H141.256V44.04C141.256 44.84 141.432 45.448 141.784 45.864C142.152 46.264 142.632 46.464 143.224 46.464C143.832 46.464 144.288 46.312 144.592 46.008C144.752 45.864 144.896 45.872 145.024 46.032L145.6 46.776Z" fill="black"/>
</svg>
