<svg width="374" height="78" viewBox="0 0 374 78" fill="none" xmlns="http://www.w3.org/2000/svg">
<rect width="374" height="78" rx="10" fill="white"/>
<path d="M37.16 41.76V32.568H35.312C35.12 32.568 35.024 32.472 35.024 32.28V31.056C35.024 30.864 35.12 30.768 35.312 30.768H41.096C41.288 30.768 41.384 30.864 41.384 31.056V32.28C41.384 32.472 41.288 32.568 41.096 32.568H39.248V41.544C39.248 43.704 38.68 45.352 37.544 46.488C36.424 47.608 34.832 48.168 32.768 48.168C30.72 48.168 29.128 47.608 27.992 46.488C26.856 45.352 26.288 43.704 26.288 41.544V32.568H24.464C24.256 32.568 24.152 32.472 24.152 32.28V31.056C24.152 30.864 24.256 30.768 24.464 30.768H30.224C30.432 30.768 30.536 30.864 30.536 31.056V32.28C30.536 32.472 30.432 32.568 30.224 32.568H28.376V41.616C28.376 44.688 29.848 46.224 32.792 46.224C34.296 46.224 35.4 45.832 36.104 45.048C36.808 44.248 37.16 43.152 37.16 41.76ZM54.7503 48H52.4703C51.7823 48 51.4383 47.664 51.4383 46.992V40.68C51.4383 39.752 51.2143 39.032 50.7663 38.52C50.3183 38.008 49.6623 37.752 48.7983 37.752C47.5663 37.752 46.6063 38.256 45.9183 39.264C45.8383 39.36 45.7343 39.536 45.6063 39.792V46.392H46.8783C47.0863 46.392 47.1903 46.488 47.1903 46.68V47.712C47.1903 47.904 47.0863 48 46.8783 48H42.2943C42.0863 48 41.9823 47.904 41.9823 47.712V46.68C41.9823 46.488 42.0863 46.392 42.2943 46.392H43.6143V37.8H42.2943C42.0863 37.8 41.9823 37.704 41.9823 37.512V36.48C41.9823 36.288 42.0863 36.192 42.2943 36.192H45.1023C45.3103 36.192 45.4143 36.288 45.4143 36.48L45.3663 38.112H45.4383C46.2703 36.72 47.5583 36.024 49.3023 36.024C50.5823 36.024 51.5823 36.4 52.3023 37.152C53.0223 37.904 53.3903 38.92 53.4063 40.2V46.392H54.7503C54.9583 46.392 55.0623 46.488 55.0623 46.68V47.712C55.0623 47.904 54.9583 48 54.7503 48ZM61.6439 48H57.0599C56.8519 48 56.7479 47.904 56.7479 47.712V46.68C56.7479 46.488 56.8519 46.392 57.0599 46.392H58.3799V37.8H57.0599C56.8519 37.8 56.7479 37.704 56.7479 37.512V36.48C56.7479 36.288 56.8519 36.192 57.0599 36.192H60.0839C60.2759 36.192 60.3719 36.288 60.3719 36.48V46.392H61.6439C61.8519 46.392 61.9559 46.488 61.9559 46.68V47.712C61.9559 47.904 61.8519 48 61.6439 48ZM60.2759 32.64C60.5479 32.912 60.6839 33.232 60.6839 33.6C60.6839 33.968 60.5479 34.28 60.2759 34.536C60.0199 34.792 59.7079 34.92 59.3399 34.92C58.9719 34.92 58.6519 34.792 58.3799 34.536C58.1239 34.28 57.9959 33.968 57.9959 33.6C57.9959 33.232 58.1239 32.912 58.3799 32.64C58.6519 32.368 58.9719 32.232 59.3399 32.232C59.7079 32.232 60.0199 32.368 60.2759 32.64ZM71.6311 46.776C71.6951 46.84 71.7271 46.912 71.7271 46.992C71.7271 47.056 71.6791 47.136 71.5831 47.232C70.8791 47.856 69.9911 48.168 68.9191 48.168C67.8631 48.168 66.9911 47.824 66.3031 47.136C65.6311 46.432 65.2951 45.416 65.2951 44.088V37.8H63.9511C63.7271 37.8 63.6151 37.696 63.6151 37.488V36.504C63.6151 36.296 63.7271 36.192 63.9511 36.192H65.2951V33.768C65.2951 33.544 65.4071 33.432 65.6311 33.432H66.9751C67.1831 33.432 67.2871 33.544 67.2871 33.768V36.192H70.3351C70.5591 36.192 70.6711 36.296 70.6711 36.504V37.488C70.6711 37.696 70.5591 37.8 70.3351 37.8H67.2871V44.04C67.2871 44.84 67.4631 45.448 67.8151 45.864C68.1831 46.264 68.6631 46.464 69.2551 46.464C69.8631 46.464 70.3191 46.312 70.6231 46.008C70.7831 45.864 70.9271 45.872 71.0551 46.032L71.6311 46.776ZM78.3884 48.168C77.3164 48.168 76.4604 47.968 75.8204 47.568C75.1804 47.168 74.7804 46.792 74.6204 46.44H74.5724C74.6044 47.224 74.6204 47.64 74.6204 47.688C74.6204 47.896 74.5084 48 74.2844 48H73.4684C73.2604 48 73.1564 47.896 73.1564 47.688V44.088C73.1564 43.88 73.2604 43.776 73.4684 43.776H74.4044C74.6284 43.776 74.7404 43.88 74.7404 44.088V44.568C74.9004 45.048 75.2364 45.488 75.7484 45.888C76.3564 46.368 77.1164 46.608 78.0284 46.608C79.8204 46.608 80.7164 45.984 80.7164 44.736C80.7164 44.304 80.4684 43.96 79.9724 43.704C79.4764 43.432 78.8684 43.208 78.1484 43.032C77.4444 42.856 76.7404 42.656 76.0364 42.432C75.3324 42.208 74.7324 41.848 74.2364 41.352C73.7404 40.84 73.4924 40.2 73.4924 39.432C73.4924 38.392 73.8684 37.568 74.6204 36.96C75.3724 36.336 76.3324 36.024 77.5004 36.024C79.0844 36.024 80.2204 36.488 80.9084 37.416H80.9564C80.9244 36.84 80.9084 36.544 80.9084 36.528C80.9084 36.32 81.0124 36.216 81.2204 36.216H81.9884C82.1964 36.216 82.3004 36.32 82.3004 36.528V39.864C82.3004 40.072 82.1964 40.176 81.9884 40.176H81.0524C80.8284 40.176 80.7164 40.072 80.7164 39.864V39.528C80.7164 39.096 80.4604 38.672 79.9484 38.256C79.4524 37.824 78.8044 37.608 78.0044 37.608C77.2044 37.608 76.5804 37.776 76.1324 38.112C75.6844 38.448 75.4604 38.888 75.4604 39.432C75.4604 39.96 75.7084 40.376 76.2044 40.68C76.7164 40.968 77.3324 41.2 78.0524 41.376C78.7724 41.536 79.4924 41.72 80.2124 41.928C80.9324 42.136 81.5404 42.48 82.0364 42.96C82.5484 43.44 82.8044 44.104 82.8044 44.952C82.8044 45.8 82.4364 46.552 81.7004 47.208C80.9804 47.848 79.8764 48.168 78.3884 48.168Z" fill="black"/>
</svg>
